<?xml version="1.0" standalone="no"?><!DOCTYPE svg PUBLIC "-//W3C//DTD SVG 1.1//EN" "http://www.w3.org/Graphics/SVG/1.1/DTD/svg11.dtd"><svg t="1650937024604" class="icon" viewBox="0 0 1024 1024" version="1.1" xmlns="http://www.w3.org/2000/svg" p-id="2936" xmlns:xlink="http://www.w3.org/1999/xlink" width="16" height="16"><defs><style type="text/css">@font-face { font-family: feedback-iconfont; src: url("//at.alicdn.com/t/font_1031158_u69w8yhxdu.woff2?t=1630033759944") format("woff2"), url("//at.alicdn.com/t/font_1031158_u69w8yhxdu.woff?t=1630033759944") format("woff"), url("//at.alicdn.com/t/font_1031158_u69w8yhxdu.ttf?t=1630033759944") format("truetype"); }
</style></defs><path d="M897.5 423.7c0-161.7-96.7-300.9-235.4-362.7-0.7-0.3-1.4-0.6-2.2-1-1.4-0.6-2.8-1.2-4.3-1.8-48-20.5-100.7-31.8-156.2-31.8-219.8 0-398.1 178.2-398.1 398.1 0 97 34.7 185.8 92.3 254.9 0.9 1.2 1.8 2.4 2.8 3.5l1.1 1.2c2 2.3 3.9 4.5 6 6.8l0.1-0.1 263.6 288.3c2.9 3.2 6.3 5.8 9.9 7.9 16.5 11.1 39.1 8.7 53-6.4L787 699.5l0.1 0.1c5.2-5.4 10.3-11 15.2-16.8l0.1-0.1c0.7-0.7 1.3-1.5 1.9-2.3 58.2-69.2 93.3-158.6 93.3-256.1v-0.3c-0.1-0.1-0.1-0.2-0.1-0.3z" fill="#d81e06" p-id="2937"></path><path d="M499.5 264.4c-88.6 0-160.5 71.9-160.5 160.5s71.9 160.5 160.5 160.5S660 513.5 660 424.9s-71.9-160.5-160.5-160.5z" fill="#d81e06" p-id="2938"></path></svg>