<!-- Generated by IcoMoon.io -->
<svg version="1.1" xmlns="http://www.w3.org/2000/svg" width="32" height="32" viewBox="0 0 32 32">
<path fill="currentColor" d="M28 8c0-1.473-1.194-2.667-2.667-2.667h-1.333v-2c0-0.368-0.298-0.667-0.667-0.667h-1.333c-0.368 0-0.667 0.298-0.667 0.667v2h-10.667v-2c0-0.368-0.298-0.667-0.667-0.667h-1.333c-0.368 0-0.667 0.298-0.667 0.667v2h-1.333c-1.473 0-2.667 1.194-2.667 2.667v17.333c0 1.473 1.194 2.667 2.667 2.667h18.667c1.473 0 2.667-1.194 2.667-2.667v-17.333zM25.333 25.333h-18.667v-14.667h18.667v14.667zM15.333 13.333c-0.368 0-0.667 0.298-0.667 0.667v1.333c0 0.368 0.298 0.667 0.667 0.667h6.667c0.368 0 0.667-0.298 0.667-0.667v-1.333c0-0.368-0.298-0.667-0.667-0.667h-6.667zM10 16h1.333c0.368 0 0.667-0.298 0.667-0.667v-1.333c0-0.368-0.298-0.667-0.667-0.667h-1.333c-0.368 0-0.667 0.298-0.667 0.667v1.333c0 0.368 0.298 0.667 0.667 0.667zM16.667 21.333c0.368 0 0.667-0.298 0.667-0.667v-1.333c0-0.368-0.298-0.667-0.667-0.667h-6.667c-0.368 0-0.667 0.298-0.667 0.667v1.333c0 0.368 0.298 0.667 0.667 0.667h6.667zM20 20.667c0 0.368 0.298 0.667 0.667 0.667h1.333c0.368 0 0.667-0.298 0.667-0.667v-1.333c0-0.368-0.298-0.667-0.667-0.667h-1.333c-0.368 0-0.667 0.298-0.667 0.667v1.333z"></path>
</svg>
