<!-- Generated by IcoMoon.io -->
<svg version="1.1" xmlns="http://www.w3.org/2000/svg" width="32" height="32" viewBox="0 0 32 32">
<title>icon-menu2</title>
<path fill='currentColor' d="M24.532 23.325c0.55 0 0.995 0.446 0.995 0.995v0.018c0 0.55-0.446 0.995-0.995 0.995h-18.203c-0.55 0-0.995-0.446-0.995-0.995v-0.018c0-0.55 0.446-0.995 0.995-0.995h18.203zM24.532 15.794c0.55 0 0.995 0.446 0.995 0.995v0.018c0 0.55-0.446 0.995-0.995 0.995h-18.203c-0.55 0-0.995-0.446-0.995-0.995v-0.018c0-0.55 0.446-0.995 0.995-0.995h18.203zM23.565 5.544c0.016 0.015 0.031 0.030 0.045 0.045l2.717 2.944c0.045 0.043 0.087 0.089 0.123 0.14l-0.032-0.039c0.132 0.143 0.212 0.318 0.238 0.498 0.033 0.23-0.017 0.466-0.149 0.663l-0.089 0.113-2.808 3.045-0.045 0.045c-0.323 0.298-0.827 0.278-1.125-0.045s-0.327-0.802-0.089-1.156l0.089-0.113 1.302-1.413-17.413 0c-0.55 0-0.995-0.446-0.995-0.995v-0.018c0-0.55 0.446-0.995 0.995-0.995l17.407-0-1.296-1.406c-0.331-0.358-0.331-0.91 0-1.269 0.298-0.323 0.802-0.343 1.125-0.045z"></path>
</svg>
