<!-- Generated by IcoMoon.io -->
<svg version="1.1" xmlns="http://www.w3.org/2000/svg" width="32" height="32" viewBox="0 0 32 32">
<path fill="currentColor" d="M23.449 5.087l-0.081-0.266c-0.516-1.678-2.065-2.822-3.822-2.822h-6.093c-1.756 0-3.306 1.144-3.822 2.825l-0.081 0.266c-0.259 0.841-1.034 1.412-1.912 1.412h-4.637c-0.553 0-1 0.447-1 1s0.447 1 1 1h1.5c0.275 0 0.5 0.225 0.5 0.5v20.998c0 1.103 0.897 2 2 2h18.998c1.103 0 2-0.897 2-2v-21.001c0-0.275 0.225-0.5 0.5-0.5h1.5c0.553 0 1-0.447 1-1s-0.447-1-1-1h-4.637c-0.878 0-1.653-0.572-1.912-1.412zM13.453 4h6.090c0.878 0 1.653 0.572 1.912 1.412l0.334 1.087h-10.58l0.334-1.087c0.256-0.841 1.031-1.412 1.909-1.412zM7.501 29.997c-0.275 0-0.5-0.225-0.5-0.5v-20.498c0-0.275 0.225-0.5 0.5-0.5h17.998c0.275 0 0.5 0.225 0.5 0.5v20.498c0 0.275-0.225 0.5-0.5 0.5h-17.998z"></path>
<path fill="currentColor" d="M10.501 13.499v11.999c0 0.553 0.447 1 1 1s1-0.447 1-1v-11.999c0-0.553-0.447-1-1-1s-1 0.447-1 1zM15.5 13.499v11.999c0 0.553 0.447 1 1 1s1-0.447 1-1v-11.999c0-0.553-0.447-1-1-1s-1 0.447-1 1zM20.5 13.499v11.999c0 0.553 0.447 1 1 1s1-0.447 1-1v-11.999c0-0.553-0.447-1-1-1s-1 0.447-1 1z"></path>
</svg>
