<!-- Generated by IcoMoon.io -->
<svg version="1.1" xmlns="http://www.w3.org/2000/svg" width="32" height="32" viewBox="0 0 32 32">
<title>user</title>
<path fill="currentColor" d="M16.004 16c3.683 0 6.669-2.985 6.669-6.667s-2.986-6.667-6.669-6.667c-3.683 0-6.669 2.985-6.669 6.667s2.986 6.667 6.669 6.667v0zM16.004 5.333c2.21 0 4.001 1.791 4.001 4s-1.791 4-4.001 4c-2.21 0-4.001-1.791-4.001-4s1.791-4 4.001-4zM29.195 27.4l-2.521-5.053c-1.131-2.256-3.438-3.68-5.962-3.68h-9.416c-2.524 0-4.831 1.424-5.962 3.68l-2.521 5.053c-0.208 0.413-0.187 0.904 0.054 1.297s0.67 0.634 1.133 0.636h24.007c0.462-0.001 0.891-0.242 1.133-0.636s0.262-0.885 0.054-1.297zM6.161 26.667l1.56-3.12c0.676-1.355 2.060-2.211 3.574-2.213h9.416c1.514 0.002 2.898 0.859 3.574 2.213l1.56 3.12h-19.686z"></path>
</svg>
